<svg xmlns="http://www.w3.org/2000/svg" viewBox="0 0 120 100" width="120" height="100">
  <!-- Pixel-art style leopard gecko - body -->
  <rect fill="#e8c547" x="28" y="32" width="12" height="8"/>
  <rect fill="#e8c547" x="40" y="30" width="12" height="12"/>
  <rect fill="#e8c547" x="52" y="28" width="16" height="16"/>
  <rect fill="#e8c547" x="68" y="30" width="12" height="14"/>
  <rect fill="#e8c547" x="80" y="34" width="12" height="10"/>
  <!-- Head -->
  <rect fill="#e8c547" x="52" y="20" width="16" height="12"/>
  <rect fill="#2d2d2d" x="56" y="24" width="4" height="4"/>
  <rect fill="#2d2d2d" x="64" y="24" width="4" height="4"/>
  <!-- Spots (leopard pattern) -->
  <rect fill="#c49b2a" x="32" y="34" width="4" height="4"/>
  <rect fill="#c49b2a" x="44" y="32" width="4" height="4"/>
  <rect fill="#c49b2a" x="56" y="32" width="4" height="4"/>
  <rect fill="#c49b2a" x="72" y="34" width="4" height="4"/>
  <rect fill="#c49b2a" x="84" y="38" width="4" height="4"/>
  <!-- Tail -->
  <rect fill="#e8c547" x="88" y="38" width="8" height="6"/>
  <rect fill="#e8c547" x="96" y="40" width="8" height="6"/>
  <rect fill="#e8c547" x="104" y="42" width="8" height="6"/>
  <rect fill="#c49b2a" x="92" y="40" width="4" height="4"/>
  <rect fill="#c49b2a" x="100" y="42" width="4" height="4"/>
  <!-- Legs -->
  <rect fill="#e8c547" x="32" y="40" width="4" height="8"/>
  <rect fill="#e8c547" x="44" y="42" width="4" height="8"/>
  <rect fill="#e8c547" x="76" y="44" width="4" height="8"/>
  <rect fill="#e8c547" x="84" y="44" width="4" height="8"/>
  <!-- Belly -->
  <rect fill="#f5e6b8" x="54" y="38" width="8" height="6"/>
</svg>
